<?xml version="1.0" encoding="UTF-8"?>
<!DOCTYPE svg PUBLIC "-//W3C//DTD SVG 1.1//EN" "http://www.w3.org/Graphics/SVG/1.1/DTD/svg11.dtd">
<svg xmlns="http://www.w3.org/2000/svg" version="1.1" width="952px" height="266px" style="shape-rendering:geometricPrecision; text-rendering:geometricPrecision; image-rendering:optimizeQuality; fill-rule:evenodd; clip-rule:evenodd" xmlns:xlink="http://www.w3.org/1999/xlink">
<g><path style="opacity:0.156" fill="#000000" d="M 7.5,1.5 C 7.5,84.8333 7.5,168.167 7.5,251.5C 319.5,251.5 631.5,251.5 943.5,251.5C 943.5,168.167 943.5,84.8333 943.5,1.5C 946.849,2.68362 949.015,5.01695 950,8.5C 950.667,91.1667 950.667,173.833 950,256.5C 949.31,259.196 947.81,261.363 945.5,263C 788.888,264.165 632.222,264.665 475.5,264.5C 318.778,264.665 162.112,264.165 5.5,263C 3.18979,261.363 1.68979,259.196 1,256.5C 0.333333,173.833 0.333333,91.1667 1,8.5C 1.98475,5.01695 4.15141,2.68362 7.5,1.5 Z"/></g>
<g><path style="opacity:1" fill="#356750" d="M 943.5,1.5 C 943.5,84.8333 943.5,168.167 943.5,251.5C 631.5,251.5 319.5,251.5 7.5,251.5C 7.5,168.167 7.5,84.8333 7.5,1.5C 319.5,0.166667 631.5,0.166667 943.5,1.5 Z"/></g>
<g><path style="opacity:1" fill="#759076" d="M 184.5,5.5 C 148.663,5.16826 112.996,5.50159 77.5,6.5C 74.1401,6.61587 70.8067,6.9492 67.5,7.5C 69.4758,5.98912 71.8091,5.15579 74.5,5C 111.336,4.16894 148.002,4.33561 184.5,5.5 Z"/></g>
<g><path style="opacity:1" fill="#c9c4a5" d="M 77.5,6.5 C 112.996,5.50159 148.663,5.16826 184.5,5.5C 187.5,6.16667 190.5,6.83333 193.5,7.5C 154.845,6.56301 116.178,6.22967 77.5,6.5 Z"/></g>
<g><path style="opacity:1" fill="#e9d8b8" d="M 77.5,6.5 C 116.178,6.22967 154.845,6.56301 193.5,7.5C 217.812,12.638 235.646,26.3046 247,48.5C 249.52,54.9506 251.186,61.6172 252,68.5C 252.667,107.167 252.667,145.833 252,184.5C 251.019,192.442 249.019,200.108 246,207.5C 243.083,211.666 240.416,215.999 238,220.5C 233.63,224.702 229.463,229.036 225.5,233.5C 222.802,233.845 220.802,235.178 219.5,237.5C 209.821,243.002 199.488,246.835 188.5,249C 149.833,249.667 111.167,249.667 72.5,249C 41.5149,242.675 21.3483,224.508 12,194.5C 11.3333,191.167 10.6667,187.833 10,184.5C 9.33333,145.5 9.33333,106.5 10,67.5C 16.4157,35.2515 35.5823,15.2515 67.5,7.5C 70.8067,6.9492 74.1401,6.61587 77.5,6.5 Z"/></g>
<g><path style="opacity:1" fill="#e9d9b8" d="M 720.5,31.5 C 750.429,34.5347 769.263,50.5347 777,79.5C 777.499,84.4889 777.666,89.4889 777.5,94.5C 765.829,94.6665 754.162,94.4999 742.5,94C 741.098,85.4617 737.931,77.6284 733,70.5C 728.927,67.5757 724.761,64.9091 720.5,62.5C 719.365,60.7868 717.698,60.1201 715.5,60.5C 710.449,59.1727 705.449,58.1727 700.5,57.5C 700.5,48.5 700.5,39.5 700.5,30.5C 703.85,30.335 707.183,30.5017 710.5,31C 709.304,31.6543 709.304,32.1543 710.5,32.5C 713.758,31.5827 717.091,31.2493 720.5,31.5 Z"/></g>
<g><path style="opacity:1" fill="#ead9b8" d="M 437.5,221.5 C 424.677,222.495 411.677,222.829 398.5,222.5C 396.777,220.747 395.277,218.747 394,216.5C 384.138,196.146 373.638,176.146 362.5,156.5C 347.848,155.501 333.182,155.167 318.5,155.5C 318.5,177.833 318.5,200.167 318.5,222.5C 306.5,222.5 294.5,222.5 282.5,222.5C 282.5,159.167 282.5,95.8333 282.5,32.5C 314.502,32.3334 346.502,32.5 378.5,33C 391.524,35.3683 403.024,40.8683 413,49.5C 414.907,53.4103 417.573,56.7436 421,59.5C 433.022,89.7201 428.188,116.887 406.5,141C 403.498,143.503 400.165,145.503 396.5,147C 395.426,147.739 394.759,148.739 394.5,150C 408.951,173.729 423.284,197.563 437.5,221.5 Z"/></g>
<g><path style="opacity:1" fill="#e9d9b8" d="M 457.5,32.5 C 504.5,32.5 551.5,32.5 598.5,32.5C 598.821,44.0809 598.488,55.5809 597.5,67C 550.835,67.5 504.168,67.6667 457.5,67.5C 457.5,55.8333 457.5,44.1667 457.5,32.5 Z"/></g>
<g><path style="opacity:1" fill="#eadab9" d="M 940.5,32.5 C 940.667,79.5012 940.5,126.501 940,173.5C 939.79,175.058 939.29,176.391 938.5,177.5C 937.511,180.726 936.511,184.06 935.5,187.5C 926.627,207.039 911.627,218.706 890.5,222.5C 885.35,223.377 880.35,224.377 875.5,225.5C 858.534,226.6 842.201,224.1 826.5,218C 813.807,211.476 804.807,201.643 799.5,188.5C 798.202,183.293 796.535,178.293 794.5,173.5C 793.104,167.936 792.437,162.269 792.5,156.5C 792.5,154.167 792.5,151.833 792.5,149.5C 803.5,149.5 814.5,149.5 825.5,149.5C 824.73,158.42 826.73,166.42 831.5,173.5C 836.848,183.356 845.181,189.022 856.5,190.5C 862.987,191.654 869.654,191.821 876.5,191C 877.056,190.617 877.389,190.117 877.5,189.5C 893.376,185.285 902.043,174.952 903.5,158.5C 905.495,116.847 906.161,74.8466 905.5,32.5C 917.167,32.5 928.833,32.5 940.5,32.5 Z"/></g>
<g><path style="opacity:1" fill="#c0bfa0" d="M 720.5,31.5 C 717.091,31.2493 713.758,31.5827 710.5,32.5C 709.304,32.1543 709.304,31.6543 710.5,31C 707.183,30.5017 703.85,30.335 700.5,30.5C 700.5,39.5 700.5,48.5 700.5,57.5C 699.506,48.3483 699.173,39.015 699.5,29.5C 706.721,29.35 713.721,30.0167 720.5,31.5 Z"/></g>
<g><path style="opacity:1" fill="#a2ac8f" d="M 940.5,32.5 C 928.833,32.5 917.167,32.5 905.5,32.5C 906.161,74.8466 905.495,116.847 903.5,158.5C 903.333,116.499 903.5,74.4987 904,32.5C 916.265,31.1705 928.431,31.1705 940.5,32.5 Z"/></g>
<g><path style="opacity:1" fill="#91a57b" d="M 100.5,56.5 C 97.4824,56.7038 94.4824,57.0371 91.5,57.5C 92.9461,56.0598 94.7794,55.3932 97,55.5C 98.3847,55.5143 99.5514,55.8476 100.5,56.5 Z"/></g>
<g><path style="opacity:1" fill="#386a52" d="M 100.5,56.5 C 102.372,57.5114 104.372,58.3448 106.5,59C 107.908,61.5186 109.242,64.0186 110.5,66.5C 111.08,68.7488 112.413,70.4154 114.5,71.5C 114.025,74.3126 115.025,76.3126 117.5,77.5C 119.078,80.7826 120.745,84.1159 122.5,87.5C 125.419,91.2629 126.753,95.5962 126.5,100.5C 126.509,102.308 126.009,103.975 125,105.5C 120.426,110.15 114.926,111.65 108.5,110C 106.604,108.276 104.938,106.443 103.5,104.5C 101.735,98.6166 98.7352,93.6166 94.5,89.5C 94.573,87.9731 93.9063,86.9731 92.5,86.5C 92.123,82.7882 90.4563,79.7882 87.5,77.5C 84.6854,73.7885 84.0187,69.7885 85.5,65.5C 87.0551,62.5962 89.0551,59.9295 91.5,57.5C 94.4824,57.0371 97.4824,56.7038 100.5,56.5 Z"/></g>
<g><path style="opacity:1" fill="#376953" d="M 169.5,57.5 C 172.712,57.7124 174.712,59.3791 175.5,62.5C 176.741,67.1767 176.741,71.8433 175.5,76.5C 172.767,79.7562 170.767,83.4229 169.5,87.5C 166.022,89.4532 164.355,92.4532 164.5,96.5C 163.599,97.2905 162.932,98.2905 162.5,99.5C 160.159,101.656 158.159,104.156 156.5,107C 151.701,108.978 146.701,109.812 141.5,109.5C 139.413,108.415 138.08,106.749 137.5,104.5C 137.334,100.154 137.501,95.8206 138,91.5C 139.255,90.7894 140.421,89.956 141.5,89C 141.554,86.011 142.721,83.1777 145,80.5C 145.49,79.2068 145.657,77.8734 145.5,76.5C 146.799,73.6047 148.465,70.938 150.5,68.5C 153.545,64.9493 156.878,61.4493 160.5,58C 163.482,57.502 166.482,57.3354 169.5,57.5 Z"/></g>
<g><path style="opacity:1" fill="#889f74" d="M 91.5,57.5 C 89.0551,59.9295 87.0551,62.5962 85.5,65.5C 85.5881,61.4105 87.5881,58.7438 91.5,57.5 Z"/></g>
<g><path style="opacity:1" fill="#5d8677" d="M 169.5,57.5 C 166.482,57.3354 163.482,57.502 160.5,58C 156.878,61.4493 153.545,64.9493 150.5,68.5C 152.892,57.8084 159.225,54.1417 169.5,57.5 Z"/></g>
<g><path style="opacity:1" fill="#9da98c" d="M 715.5,60.5 C 717.698,60.1201 719.365,60.7868 720.5,62.5C 718.302,62.8799 716.635,62.2132 715.5,60.5 Z"/></g>
<g><path style="opacity:1" fill="#6d8a70" d="M 358.5,64.5 C 345.5,64.5 332.5,64.5 319.5,64.5C 319.5,84.1667 319.5,103.833 319.5,123.5C 334.5,123.5 349.5,123.5 364.5,123.5C 349.342,124.496 334.009,124.83 318.5,124.5C 318.5,104.167 318.5,83.8333 318.5,63.5C 332.01,63.1711 345.344,63.5044 358.5,64.5 Z"/></g>
<g><path style="opacity:1" fill="#356851" d="M 358.5,64.5 C 365.734,64.2247 372.734,65.3914 379.5,68C 384.377,71.3761 388.377,75.5428 391.5,80.5C 392.054,87.1531 392.388,93.8198 392.5,100.5C 391.076,102.515 390.41,104.848 390.5,107.5C 387.376,111.462 384.042,115.295 380.5,119C 375.403,121.385 370.069,122.885 364.5,123.5C 349.5,123.5 334.5,123.5 319.5,123.5C 319.5,103.833 319.5,84.1667 319.5,64.5C 332.5,64.5 345.5,64.5 358.5,64.5 Z"/></g>
<g><path style="opacity:1" fill="#7b9c91" d="M 175.5,62.5 C 178.244,65.5911 179.077,69.2577 178,73.5C 177.623,74.9423 176.79,75.9423 175.5,76.5C 176.741,71.8433 176.741,67.1767 175.5,62.5 Z"/></g>
<g><path style="opacity:1" fill="#829c70" d="M 110.5,66.5 C 112.587,67.5846 113.92,69.2512 114.5,71.5C 112.413,70.4154 111.08,68.7488 110.5,66.5 Z"/></g>
<g><path style="opacity:1" fill="#79966a" d="M 114.5,71.5 C 115.492,73.4561 116.492,75.4561 117.5,77.5C 115.025,76.3126 114.025,74.3126 114.5,71.5 Z"/></g>
<g><path style="opacity:1" fill="#a3af88" d="M 87.5,77.5 C 90.4563,79.7882 92.123,82.7882 92.5,86.5C 89.5278,84.2219 87.8611,81.2219 87.5,77.5 Z"/></g>
<g><path style="opacity:1" fill="#e9d9b8" d="M 774.5,188.5 C 772.755,190.033 771.755,192.033 771.5,194.5C 762.184,208.139 749.518,217.139 733.5,221.5C 729.837,221.952 726.17,222.452 722.5,223C 721.584,223.278 720.918,223.778 720.5,224.5C 717.615,224.194 714.948,224.527 712.5,225.5C 704.981,225.825 697.648,225.492 690.5,224.5C 685.668,223.6 680.668,222.934 675.5,222.5C 675.167,222.5 674.833,222.5 674.5,222.5C 672.485,221.076 670.152,220.41 667.5,220.5C 647.966,215.312 634.466,203.312 627,184.5C 624.386,177.045 623.219,169.379 623.5,161.5C 635.5,161.5 647.5,161.5 659.5,161.5C 659.205,163.735 659.539,165.735 660.5,167.5C 664.426,183.429 674.426,192.762 690.5,195.5C 697.989,196.656 705.655,196.822 713.5,196C 714.737,195.768 715.737,195.268 716.5,194.5C 722.304,192.502 727.97,190.002 733.5,187C 744.468,174.968 744.135,163.302 732.5,152C 728.835,150.503 725.502,148.503 722.5,146C 701.22,139.016 679.887,132.349 658.5,126C 646.837,121.167 637.837,113.333 631.5,102.5C 631.245,100.033 630.245,98.0326 628.5,96.5C 626.915,91.3246 626.248,85.9913 626.5,80.5C 637.838,80.3335 649.172,80.5001 660.5,81C 661.978,87.5414 665.311,93.208 670.5,98C 685.274,105.925 700.941,111.258 717.5,114C 725.614,117.451 733.947,120.451 742.5,123C 750.131,126.816 757.464,131.149 764.5,136C 766.948,140.115 769.781,143.948 773,147.5C 778.392,161.007 778.892,174.674 774.5,188.5 Z"/></g>
<g><path style="opacity:1" fill="#598577" d="M 145.5,76.5 C 145.657,77.8734 145.49,79.2068 145,80.5C 142.721,83.1777 141.554,86.011 141.5,89C 140.421,89.956 139.255,90.7894 138,91.5C 137.501,95.8206 137.334,100.154 137.5,104.5C 136.778,104.082 136.278,103.416 136,102.5C 135.333,99.5 135.333,96.5 136,93.5C 138.673,87.4798 141.84,81.8132 145.5,76.5 Z"/></g>
<g><path style="opacity:1" fill="#85a091" d="M 169.5,87.5 C 167.643,90.4175 165.976,93.4175 164.5,96.5C 164.355,92.4532 166.022,89.4532 169.5,87.5 Z"/></g>
<g><path style="opacity:1" fill="#76936d" d="M 94.5,89.5 C 98.7352,93.6166 101.735,98.6166 103.5,104.5C 100.654,102.525 98.4871,99.8587 97,96.5C 96.6162,93.9398 95.7829,91.6064 94.5,89.5 Z"/></g>
<g><path style="opacity:1" fill="#7f957a" d="M 391.5,80.5 C 392.94,84.4064 393.606,88.5731 393.5,93C 393.497,95.6903 393.164,98.1903 392.5,100.5C 392.388,93.8198 392.054,87.1531 391.5,80.5 Z"/></g>
<g><path style="opacity:1" fill="#7f9a70" d="M 122.5,87.5 C 127.414,90.7436 128.748,95.0769 126.5,100.5C 126.753,95.5962 125.419,91.2629 122.5,87.5 Z"/></g>
<g><path style="opacity:1" fill="#8c9e82" d="M 628.5,96.5 C 630.245,98.0326 631.245,100.033 631.5,102.5C 629.755,100.967 628.755,98.9674 628.5,96.5 Z"/></g>
<g><path style="opacity:1" fill="#7f957a" d="M 392.5,100.5 C 392.59,103.152 391.924,105.485 390.5,107.5C 390.41,104.848 391.076,102.515 392.5,100.5 Z"/></g>
<g><path style="opacity:1" fill="#628a7c" d="M 162.5,99.5 C 160.574,106.919 155.741,110.919 148,111.5C 145.516,111.503 143.349,110.837 141.5,109.5C 146.701,109.812 151.701,108.978 156.5,107C 158.159,104.156 160.159,101.656 162.5,99.5 Z"/></g>
<g><path style="opacity:1" fill="#e8d8b7" d="M 457.5,110.5 C 504.5,110.5 551.5,110.5 598.5,110.5C 598.821,121.748 598.487,132.915 597.5,144C 550.835,144.5 504.168,144.667 457.5,144.5C 457.5,133.167 457.5,121.833 457.5,110.5 Z"/></g>
<g><path style="opacity:1" fill="#c8c2a8" d="M 162.5,114.5 C 176.327,113.339 190.327,113.173 204.5,114C 205.056,114.383 205.389,114.883 205.5,115.5C 204.833,115.5 204.167,115.5 203.5,115.5C 190.01,114.504 176.344,114.171 162.5,114.5 Z"/></g>
<g><path style="opacity:1" fill="#8e9a76" d="M 103.5,118.5 C 101.577,118.205 99.9101,117.372 98.5,116C 84.5,115.333 70.5,115.333 56.5,116C 55.6266,117.045 54.6266,117.878 53.5,118.5C 54.1603,115.351 56.1603,113.851 59.5,114C 71.8333,113.333 84.1667,113.333 96.5,114C 99.2565,114.938 101.59,116.438 103.5,118.5 Z"/></g>
<g><path style="opacity:1" fill="#7a917f" d="M 162.5,114.5 C 176.344,114.171 190.01,114.504 203.5,115.5C 189.427,115.053 175.427,115.553 161.5,117C 154.87,124.499 154.87,131.999 161.5,139.5C 159.629,139.141 158.129,138.141 157,136.5C 153.889,132.278 152.889,127.611 154,122.5C 156.703,119.629 159.536,116.962 162.5,114.5 Z"/></g>
<g><path style="opacity:1" fill="#a3ab92" d="M 139.5,118.5 C 132.942,115.237 126.942,115.904 121.5,120.5C 121.916,118.248 123.249,116.748 125.5,116C 129.5,115.333 133.5,115.333 137.5,116C 138.381,116.708 139.047,117.542 139.5,118.5 Z"/></g>
<g><path style="opacity:1" fill="#376951" d="M 103.5,118.5 C 105.61,119.453 106.777,121.119 107,123.5C 107.543,126.868 107.376,130.201 106.5,133.5C 103.916,136.252 100.916,138.419 97.5,140C 84.1708,140.5 70.8375,140.667 57.5,140.5C 56.469,139.751 55.3024,139.085 54,138.5C 53.4005,136.09 52.2338,134.09 50.5,132.5C 50.307,128.434 50.6403,124.434 51.5,120.5C 51.8333,119.5 52.5,118.833 53.5,118.5C 54.6266,117.878 55.6266,117.045 56.5,116C 70.5,115.333 84.5,115.333 98.5,116C 99.9101,117.372 101.577,118.205 103.5,118.5 Z"/></g>
<g><path style="opacity:1" fill="#376952" d="M 203.5,115.5 C 204.167,115.5 204.833,115.5 205.5,115.5C 215.74,122.685 216.073,130.518 206.5,139C 198.766,140.136 190.932,140.636 183,140.5C 175.659,140.5 168.492,140.166 161.5,139.5C 154.87,131.999 154.87,124.499 161.5,117C 175.427,115.553 189.427,115.053 203.5,115.5 Z"/></g>
<g><path style="opacity:1" fill="#386a53" d="M 139.5,118.5 C 144.067,125.954 148.567,133.62 153,141.5C 157.328,146.121 160.494,151.454 162.5,157.5C 162.755,159.967 163.755,161.967 165.5,163.5C 168.903,167.29 171.569,171.624 173.5,176.5C 176.618,183.538 175.951,190.204 171.5,196.5C 164.34,199.997 158.174,198.664 153,192.5C 151.364,188.378 149.531,184.378 147.5,180.5C 146.053,178.597 144.386,176.93 142.5,175.5C 141.384,170.954 139.384,166.954 136.5,163.5C 135.155,161.303 133.989,158.97 133,156.5C 131.951,155.483 130.784,155.316 129.5,156C 127.623,160.512 125.289,164.679 122.5,168.5C 119.306,173.554 116.639,178.888 114.5,184.5C 111.263,186.63 109.263,189.63 108.5,193.5C 106.754,195.252 104.754,196.585 102.5,197.5C 88.0258,197.122 83.3591,190.122 88.5,176.5C 91.6018,172.633 93.9351,168.3 95.5,163.5C 95.9569,162.702 96.6236,162.369 97.5,162.5C 100.247,159.277 102.247,155.611 103.5,151.5C 105.245,149.967 106.245,147.967 106.5,145.5C 106.75,143.326 107.75,141.659 109.5,140.5C 111.162,137.88 112.828,135.213 114.5,132.5C 115.828,127.835 118.161,123.835 121.5,120.5C 126.942,115.904 132.942,115.237 139.5,118.5 Z"/></g>
<g><path style="opacity:1" fill="#b6b28a" d="M 51.5,120.5 C 50.6403,124.434 50.307,128.434 50.5,132.5C 49.0277,130.883 48.361,128.883 48.5,126.5C 48.0777,123.692 49.0777,121.692 51.5,120.5 Z"/></g>
<g><path style="opacity:1" fill="#96a38b" d="M 114.5,132.5 C 112.828,135.213 111.162,137.88 109.5,140.5C 109.652,136.859 111.318,134.193 114.5,132.5 Z"/></g>
<g><path style="opacity:1" fill="#c7bc8f" d="M 106.5,133.5 C 105.073,136.764 102.739,139.264 99.5,141C 85.3272,141.827 71.3272,141.661 57.5,140.5C 70.8375,140.667 84.1708,140.5 97.5,140C 100.916,138.419 103.916,136.252 106.5,133.5 Z"/></g>
<g><path style="opacity:1" fill="#9ba78b" d="M 825.5,149.5 C 814.5,149.5 803.5,149.5 792.5,149.5C 792.5,151.833 792.5,154.167 792.5,156.5C 791.527,154.052 791.194,151.385 791.5,148.5C 803.012,148.172 814.346,148.505 825.5,149.5 Z"/></g>
<g><path style="opacity:1" fill="#94a28b" d="M 106.5,145.5 C 106.245,147.967 105.245,149.967 103.5,151.5C 103.755,149.033 104.755,147.033 106.5,145.5 Z"/></g>
<g><path style="opacity:1" fill="#7e947d" d="M 103.5,151.5 C 102.247,155.611 100.247,159.277 97.5,162.5C 97.6847,157.794 99.6847,154.127 103.5,151.5 Z"/></g>
<g><path style="opacity:1" fill="#c5c2a3" d="M 623.5,161.5 C 635.655,160.505 647.989,160.171 660.5,160.5C 660.5,162.833 660.5,165.167 660.5,167.5C 659.539,165.735 659.205,163.735 659.5,161.5C 647.5,161.5 635.5,161.5 623.5,161.5 Z"/></g>
<g><path style="opacity:1" fill="#81957f" d="M 162.5,157.5 C 164.245,159.033 165.245,161.033 165.5,163.5C 163.755,161.967 162.755,159.967 162.5,157.5 Z"/></g>
<g><path style="opacity:1" fill="#c1c0a1" d="M 825.5,149.5 C 826.485,157.661 828.485,165.661 831.5,173.5C 826.73,166.42 824.73,158.42 825.5,149.5 Z"/></g>
<g><path style="opacity:1" fill="#acb197" d="M 136.5,163.5 C 134.537,162.04 132.704,160.373 131,158.5C 128.86,162.462 126.027,165.796 122.5,168.5C 125.289,164.679 127.623,160.512 129.5,156C 130.784,155.316 131.951,155.483 133,156.5C 133.989,158.97 135.155,161.303 136.5,163.5 Z"/></g>
<g><path style="opacity:1" fill="#8c9e82" d="M 938.5,177.5 C 938.975,181.416 937.975,184.749 935.5,187.5C 936.511,184.06 937.511,180.726 938.5,177.5 Z"/></g>
<g><path style="opacity:1" fill="#738d77" d="M 88.5,176.5 C 83.3591,190.122 88.0258,197.122 102.5,197.5C 92.2136,200.182 86.5469,196.182 85.5,185.5C 85.1403,181.911 86.1403,178.911 88.5,176.5 Z"/></g>
<g><path style="opacity:1" fill="#6c8a70" d="M 794.5,173.5 C 796.535,178.293 798.202,183.293 799.5,188.5C 798.85,188.196 798.183,187.863 797.5,187.5C 796.493,182.818 795.493,178.152 794.5,173.5 Z"/></g>
<g><path style="opacity:1" fill="#ecdbba" d="M 596.5,187.5 C 596.5,198.833 596.5,210.167 596.5,221.5C 550.167,221.5 503.833,221.5 457.5,221.5C 457.5,210.167 457.5,198.833 457.5,187.5C 503.833,187.5 550.167,187.5 596.5,187.5 Z"/></g>
<g><path style="opacity:1" fill="#b2b59b" d="M 173.5,176.5 C 176.802,178.258 178.469,181.091 178.5,185C 178.034,188.43 176.868,191.597 175,194.5C 174.184,195.823 173.017,196.489 171.5,196.5C 175.951,190.204 176.618,183.538 173.5,176.5 Z"/></g>
<g><path style="opacity:1" fill="#9eaa8d" d="M 877.5,189.5 C 877.389,190.117 877.056,190.617 876.5,191C 869.654,191.821 862.987,191.654 856.5,190.5C 863.543,190.72 870.543,190.386 877.5,189.5 Z"/></g>
<g><path style="opacity:1" fill="#adb298" d="M 114.5,184.5 C 112.787,186.907 111.453,189.574 110.5,192.5C 110.043,193.298 109.376,193.631 108.5,193.5C 109.263,189.63 111.263,186.63 114.5,184.5 Z"/></g>
<g><path style="opacity:1" fill="#8a9d81" d="M 774.5,188.5 C 774.245,190.967 773.245,192.967 771.5,194.5C 771.755,192.033 772.755,190.033 774.5,188.5 Z"/></g>
<g><path style="opacity:1" fill="#99a68a" d="M 716.5,194.5 C 715.737,195.268 714.737,195.768 713.5,196C 705.655,196.822 697.989,196.656 690.5,195.5C 699.2,195.711 707.867,195.377 716.5,194.5 Z"/></g>
<g><path style="opacity:1" fill="#c6c3a4" d="M 596.5,187.5 C 598.478,198.451 599.144,209.784 598.5,221.5C 551.572,222.495 504.572,222.828 457.5,222.5C 457.5,222.167 457.5,221.833 457.5,221.5C 503.833,221.5 550.167,221.5 596.5,221.5C 596.5,210.167 596.5,198.833 596.5,187.5 Z"/></g>
<g><path style="opacity:1" fill="#9da88c" d="M 667.5,220.5 C 670.152,220.41 672.485,221.076 674.5,222.5C 671.848,222.59 669.515,221.924 667.5,220.5 Z"/></g>
<g><path style="opacity:1" fill="#6e8b71" d="M 437.5,221.5 C 438.043,221.56 438.376,221.893 438.5,222.5C 425.006,223.825 411.673,223.825 398.5,222.5C 411.677,222.829 424.677,222.495 437.5,221.5 Z"/></g>
<g><path style="opacity:1" fill="#68876e" d="M 598.5,221.5 C 575.343,222.833 551.843,223.5 528,223.5C 504.331,223.5 480.831,223.167 457.5,222.5C 504.572,222.828 551.572,222.495 598.5,221.5 Z"/></g>
<g><path style="opacity:1" fill="#a7af92" d="M 675.5,222.5 C 680.668,222.934 685.668,223.6 690.5,224.5C 687.833,224.5 685.167,224.5 682.5,224.5C 679.848,224.59 677.515,223.924 675.5,222.5 Z"/></g>
<g><path style="opacity:1" fill="#7a9378" d="M 733.5,221.5 C 729.458,223.237 725.124,224.237 720.5,224.5C 720.918,223.778 721.584,223.278 722.5,223C 726.17,222.452 729.837,221.952 733.5,221.5 Z"/></g>
<g><path style="opacity:1" fill="#6c8a70" d="M 890.5,222.5 C 889.848,223.725 888.681,224.392 887,224.5C 883.196,225.205 879.363,225.538 875.5,225.5C 880.35,224.377 885.35,223.377 890.5,222.5 Z"/></g>
<g><path style="opacity:1" fill="#5d8067" d="M 682.5,224.5 C 685.167,224.5 687.833,224.5 690.5,224.5C 697.648,225.492 704.981,225.825 712.5,225.5C 708.849,226.165 705.015,226.499 701,226.5C 694.601,226.63 688.434,225.963 682.5,224.5 Z"/></g>
<g><path style="opacity:1" fill="#8a9c81" d="M 225.5,233.5 C 223.853,235.326 221.853,236.66 219.5,237.5C 220.802,235.178 222.802,233.845 225.5,233.5 Z"/></g>
</svg>
