<?xml version="1.0" standalone="no"?>
<!DOCTYPE svg PUBLIC "-//W3C//DTD SVG 20010904//EN"
 "http://www.w3.org/TR/2001/REC-SVG-20010904/DTD/svg10.dtd">
<svg version="1.0" xmlns="http://www.w3.org/2000/svg"
 width="952.000000pt" height="266.000000pt" viewBox="0 0 952.000000 266.000000"
 preserveAspectRatio="xMidYMid meet">

<g transform="translate(0.000000,266.000000) scale(0.100000,-0.100000)"
fill="#ffffff" stroke="none">
<path d="M80 1390 l0 -1250 4680 0 4680 0 0 1250 0 1250 -4680 0 -4680 0 0
-1250z m1806 1209 c300 -42 544 -249 621 -530 16 -58 18 -123 18 -689 l0 -625
-24 -83 c-32 -114 -119 -243 -222 -332 -76 -65 -94 -76 -199 -124 -119 -54
-138 -56 -756 -56 -368 0 -591 4 -629 11 -122 22 -281 109 -379 205 -92 90
-183 258 -205 379 -7 38 -11 261 -11 629 0 650 0 644 78 807 40 83 63 118 119
174 117 120 157 145 318 202 39 13 99 28 135 32 101 13 1046 13 1136 0z m5354
-259 c129 -25 200 -52 279 -104 161 -107 253 -267 263 -456 l3 -65 -179 0
-178 0 -22 75 c-46 159 -147 242 -336 275 l-65 11 -3 134 c-1 74 0 140 3 148
6 17 86 11 235 -18z m-3400 -24 c95 -24 137 -42 212 -92 68 -45 138 -125 176
-201 11 -21 28 -76 37 -123 21 -101 16 -270 -10 -365 -29 -106 -123 -245 -207
-305 -29 -21 -63 -47 -76 -57 l-23 -18 26 -35 c14 -19 46 -71 71 -115 25 -44
59 -102 76 -130 18 -27 53 -84 78 -125 26 -41 57 -95 70 -120 12 -25 30 -54
39 -65 27 -31 81 -132 74 -139 -8 -7 -360 -8 -389 0 -13 3 -35 34 -62 87 -23
45 -69 132 -102 192 -32 61 -79 148 -102 195 -24 47 -59 111 -77 143 l-33 57
-214 0 -214 0 -2 -338 -3 -337 -177 -3 -178 -2 0 961 0 961 473 -5 c398 -3
482 -7 537 -21z m2145 -156 l0 -175 -702 -3 -703 -2 0 180 0 180 703 -2 702
-3 0 -175z m3430 -525 c0 -783 3 -749 -72 -897 -78 -153 -197 -245 -398 -304
-74 -22 -116 -28 -237 -32 -167 -5 -240 5 -373 49 -164 55 -278 166 -345 334
-48 124 -57 165 -66 289 l-7 96 173 -2 174 -3 13 -69 c37 -205 101 -289 251
-331 74 -21 218 -16 300 9 61 20 134 80 162 136 49 95 50 117 50 788 0 495 3
631 13 635 6 3 91 5 187 4 l175 -2 0 -700z m-2789 174 c24 -72 63 -116 127
-148 117 -57 175 -79 298 -110 339 -87 549 -188 639 -308 57 -76 79 -131 91
-224 17 -139 -8 -237 -90 -354 -73 -104 -179 -172 -352 -227 -103 -32 -106
-32 -309 -33 -196 0 -210 1 -310 29 -116 32 -210 76 -283 135 -50 40 -126 143
-156 214 -24 56 -44 170 -39 227 l3 45 177 3 178 2 5 -27 c16 -84 28 -116 60
-171 31 -53 45 -66 108 -100 103 -56 146 -65 287 -60 119 4 121 5 207 49 83
41 90 47 120 104 40 75 41 113 4 192 -26 55 -38 68 -100 107 -42 27 -104 55
-158 71 -48 15 -124 38 -168 52 -44 14 -114 34 -155 44 -166 44 -301 106 -393
182 -83 68 -156 220 -157 325 l0 22 177 -2 176 -3 13 -36z m-638 -426 l-3
-168 -702 -3 -703 -2 0 170 0 170 705 0 705 0 -2 -167z m-35 -599 l37 -6 0
-173 0 -172 -82 -5 c-46 -3 -362 -4 -703 -4 l-620 1 -3 174 c-2 112 1 177 8
181 13 8 1310 11 1363 4z"/>
<path d="M924 2071 c-46 -28 -64 -59 -64 -111 0 -34 7 -55 26 -81 14 -19 42
-65 61 -104 53 -106 123 -205 150 -216 53 -20 93 -11 134 30 34 33 39 45 39
83 0 32 -8 56 -25 82 -14 21 -35 56 -46 79 -12 23 -48 85 -80 139 -46 75 -67
99 -91 107 -44 16 -69 14 -104 -8z"/>
<path d="M1593 2070 c-32 -19 -74 -77 -98 -134 -7 -17 -22 -42 -33 -56 -44
-57 -92 -163 -92 -204 0 -76 48 -126 121 -126 54 0 85 25 130 107 23 43 52 91
63 108 45 64 88 161 89 197 0 100 -97 159 -180 108z"/>
<path d="M574 1490 c-59 -24 -84 -119 -47 -181 31 -52 62 -59 265 -59 207 0
236 8 270 71 33 62 19 122 -38 160 -26 17 -48 19 -229 18 -110 0 -210 -4 -221
-9z"/>
<path d="M1615 1480 c-32 -21 -65 -73 -65 -103 0 -28 26 -72 60 -101 l32 -26
203 0 203 0 33 27 c39 33 62 86 54 123 -4 16 -24 45 -46 64 l-39 36 -203 0
c-184 0 -205 -2 -232 -20z"/>
<path d="M1247 1465 c-22 -15 -48 -47 -63 -78 -15 -29 -48 -88 -74 -132 -81
-137 -157 -269 -175 -305 -10 -19 -26 -46 -36 -59 -47 -59 -41 -140 12 -185
24 -20 41 -26 81 -26 42 0 54 5 76 29 35 37 62 79 112 175 23 43 57 101 76
129 19 27 34 55 34 62 0 7 6 18 13 24 18 15 32 -2 94 -114 168 -301 171 -305
247 -305 52 0 83 16 102 52 33 64 16 129 -73 268 -36 57 -102 173 -157 275
-86 160 -126 205 -186 212 -37 3 -52 0 -83 -22z"/>
<path d="M3195 1998 c-3 -7 -4 -141 -3 -298 l3 -285 230 0 c291 0 343 11 418
89 66 68 79 98 85 183 7 115 -3 154 -56 218 -77 92 -104 98 -414 103 -210 3
-259 1 -263 -10z"/>
</g>
</svg>
