<?xml version="1.0" standalone="no"?>
<!DOCTYPE svg PUBLIC "-//W3C//DTD SVG 20010904//EN"
 "http://www.w3.org/TR/2001/REC-SVG-20010904/DTD/svg10.dtd">
<svg version="1.0" xmlns="http://www.w3.org/2000/svg"
 width="1536.000000pt" height="1024.000000pt" viewBox="0 0 1536.000000 1024.000000"
 preserveAspectRatio="xMidYMid meet">

<g transform="translate(0.000000,1024.000000) scale(0.100000,-0.100000)"
fill="#356851" stroke="none">
<path d="M2201 7018 c-70 -48 -76 -64 -76 -218 -1 -77 -3 -141 -6 -144 -3 -3
-25 -8 -50 -11 -85 -10 -140 -36 -195 -89 -36 -35 -56 -64 -63 -93 -8 -30 -11
-363 -9 -1155 l3 -1113 22 -47 c29 -63 96 -134 158 -166 l50 -27 860 -3 c593
-2 871 0 897 8 25 7 50 26 75 57 87 107 168 178 251 221 l82 43 0 -146 c0
-164 7 -193 62 -241 25 -22 50 -33 84 -37 27 -4 479 -6 1004 -4 935 2 956 2
989 22 43 25 70 62 80 107 13 58 3 1946 -11 1971 -18 35 -519 547 -552 565
-25 13 -68 17 -224 20 l-192 4 1 191 c2 177 0 195 -19 233 -39 76 -18 74 -654
74 -628 0 -634 -1 -762 -67 -67 -36 -190 -143 -213 -187 -9 -17 -18 -11 -82
57 -82 86 -143 129 -239 166 l-67 26 -585 3 -586 3 -33 -23z m1191 -209 c114
-38 208 -124 250 -228 l23 -56 3 -845 c1 -465 1 -959 0 -1098 l-3 -254 -25 20
c-39 31 -134 80 -203 104 -61 22 -72 23 -579 26 l-518 3 0 1175 0 1174 495 0
c475 0 498 -1 557 -21z m1848 -124 l0 -144 -462 -3 c-442 -3 -465 -4 -497 -23
-19 -11 -43 -33 -55 -48 -21 -28 -21 -32 -26 -1003 l-5 -975 -67 -23 c-68 -24
-167 -79 -219 -123 l-29 -25 2 1098 3 1099 25 60 c29 70 131 180 195 210 90
42 111 43 633 44 l502 1 0 -145z m-3110 -1290 c4 -816 8 -1045 18 -1062 27
-48 24 -48 617 -53 548 -5 561 -5 622 -27 72 -27 155 -73 161 -91 3 -10 -142
-12 -715 -10 l-718 3 -36 22 c-68 43 -64 -30 -67 1133 -2 773 1 1062 9 1083 7
17 23 30 43 36 66 20 60 110 66 -1034z m3570 679 c0 -261 4 -283 61 -303 20
-7 115 -11 245 -11 l214 0 0 -845 0 -845 -497 0 c-274 -1 -678 -1 -898 -2
l-400 -1 -3 1124 -2 1124 640 -3 640 -2 0 -236z m324 -10 l100 -104 -101 0
-102 0 -3 105 c-2 58 -1 104 2 104 3 -1 50 -48 104 -105z"/>
<path d="M2587 6229 c-27 -16 -48 -72 -41 -108 4 -16 17 -40 31 -53 l25 -23
351 -3 c237 -2 364 0 389 8 61 18 85 87 53 149 -8 16 -22 31 -30 35 -30 11
-758 6 -778 -5z"/>
<path d="M2579 5712 c-25 -23 -32 -36 -33 -71 -1 -37 4 -47 32 -72 l33 -30
375 3 376 3 24 28 c16 19 24 40 24 67 0 27 -8 48 -24 67 l-24 28 -376 3 -375
3 -32 -29z"/>
<path d="M2576 5205 c-30 -32 -37 -70 -23 -114 20 -61 22 -61 440 -59 l379 3
19 24 c12 15 19 39 19 68 0 36 -6 50 -29 74 l-29 29 -377 0 -376 0 -23 -25z"/>
<path d="M5020 6121 c-69 -21 -122 -66 -156 -131 -13 -25 -19 -57 -19 -116 0
-72 3 -85 30 -129 44 -71 105 -106 195 -113 113 -8 204 39 253 132 30 58 30
174 0 231 -45 84 -129 135 -223 134 -30 0 -66 -4 -80 -8z"/>
<path d="M4835 5526 c-102 -48 -158 -141 -159 -264 -1 -62 2 -76 18 -88 16
-11 86 -14 397 -14 366 0 377 1 403 21 23 18 26 27 26 83 0 120 -57 217 -154
262 -49 23 -61 24 -266 24 -205 0 -217 -1 -265 -24z"/>
<path d="M4715 4986 c-56 -25 -72 -105 -31 -153 l24 -28 604 -3 c450 -2 610 1
632 9 34 15 60 69 51 109 -3 15 -17 38 -31 51 l-26 24 -596 2 c-479 2 -603 0
-627 -11z"/>
<path d="M4733 4623 c-35 -7 -73 -59 -73 -100 0 -25 8 -43 29 -64 l30 -29 615
2 615 3 23 23 c35 34 32 102 -5 139 l-27 28 -593 1 c-325 1 -602 0 -614 -3z"/>
<path d="M10805 6399 c-155 -30 -262 -85 -361 -183 -79 -79 -117 -149 -140
-254 -39 -185 10 -360 130 -468 102 -93 193 -132 513 -220 248 -68 347 -108
393 -161 74 -84 59 -236 -32 -320 -35 -32 -120 -72 -179 -83 -118 -22 -292 -5
-377 39 -74 38 -138 123 -157 209 l-7 32 -179 0 -180 0 6 -37 c36 -220 134
-368 302 -456 141 -74 359 -108 559 -87 225 23 363 79 479 195 119 119 163
242 153 434 -9 163 -63 263 -196 358 -97 69 -139 85 -545 197 -198 55 -292
109 -323 183 -21 48 -18 147 5 191 54 105 192 162 359 149 180 -14 286 -91
314 -228 l12 -59 172 0 172 0 -5 43 c-17 151 -70 266 -163 358 -125 123 -262
170 -515 175 -88 1 -182 -2 -210 -7z"/>
<path d="M6930 5406 l0 -966 170 0 170 0 0 360 0 360 174 0 174 0 110 -187
c60 -104 154 -266 208 -360 l99 -173 193 0 c105 0 192 2 192 5 0 6 -53 93
-262 428 -99 158 -181 295 -182 303 -1 9 21 24 57 38 224 92 339 278 340 551
0 190 -46 309 -168 430 -80 79 -137 114 -245 146 -72 22 -91 23 -552 27 l-478
3 0 -965z m891 650 c72 -22 104 -42 143 -88 93 -108 89 -307 -9 -416 -82 -91
-173 -112 -497 -112 l-188 0 0 315 0 315 253 0 c188 0 264 -4 298 -14z"/>
<path d="M8720 5405 l0 -965 620 0 620 0 0 150 0 150 -445 0 -445 0 0 255 0
255 415 0 415 0 0 150 0 150 -415 0 -415 0 0 260 0 260 445 0 445 0 0 150 0
150 -620 0 -620 0 0 -965z"/>
<path d="M12838 5638 c-4 -826 0 -783 -81 -866 -54 -55 -123 -77 -218 -69 -36
3 -82 12 -100 20 -75 31 -134 119 -146 217 l-6 50 -168 0 c-93 0 -172 0 -176
0 -11 -1 -4 -84 13 -159 36 -158 138 -291 276 -356 110 -52 197 -68 358 -62
169 5 261 32 367 106 104 73 153 140 207 281 20 54 21 69 24 813 l3 757 -175
0 -175 0 -3 -732z"/>
</g>
</svg>
